<svg width="123" height="119" viewBox="0 0 123 119" fill="none" xmlns="http://www.w3.org/2000/svg">
<g clip-path="url(#clip0_23_444)">
<path d="M81.1798 13.0107C72.4052 10.0578 65.6818 9.75794 58.4659 15.4699C51.2497 21.1819 48.1339 20.8647 38.6218 22.4514C29.1097 24.0379 24.3538 31.9714 25.8298 41.6499C27.3058 51.3287 18.2857 54.6607 15.3337 67.6717C12.3817 80.6822 19.7617 93.6927 19.7617 93.6927H104.222C104.222 93.6927 107.761 87.5687 109.47 77.3502C111.179 67.1316 105.206 57.0409 98.7277 48.3937C92.2498 39.7459 95.9398 36.8899 95.2018 28.5599C94.4638 20.2299 84.9517 14.2799 81.1798 13.0107Z" fill="#75D1EA"/>
<path d="M107.435 62.9243C107.413 62.911 107.394 62.8924 107.383 62.8636C104.79 55.8003 92.5807 57.7369 90.6466 64.2916C90.626 64.3616 90.5327 64.4068 90.4661 64.3628C89.5214 63.7383 88.3458 63.2456 87.1965 63.6264C86.1844 63.9623 85.4221 64.7617 84.8484 65.6078C83.645 67.3823 82.9702 69.4334 82.2826 71.4316C82.2509 71.524 82.1099 71.5566 82.0578 71.46C80.0125 67.6743 74.6443 72.8113 73.9186 75.2396C73.8903 75.3341 73.744 75.3627 73.6938 75.268C72.1499 72.3625 67.9396 71.8248 64.9458 72.318C61.7935 72.8373 58.4521 74.7796 58.9168 78.302C58.9306 78.4065 58.7739 78.4576 58.7067 78.3862C57.0317 76.596 55.0007 74.6051 52.4445 74.1294C49.6148 73.6024 47.0047 75.093 44.8586 76.7202C44.778 76.7814 44.6493 76.749 44.6486 76.636C44.6363 74.6746 44.1989 72.4427 42.8614 70.8961C41.2916 69.0812 39.0454 69.0928 36.9618 70.0748C36.8823 70.1122 36.7731 70.0684 36.7768 69.972C36.8435 68.2046 36.1847 66.2375 34.1672 65.8503C32.2871 65.4895 30.4246 66.4334 29.1146 67.6762C29.0344 67.7524 28.9117 67.6936 28.9046 67.592C28.8977 67.4839 28.8898 67.3761 28.8807 67.2683C28.7055 65.3205 28.1484 63.0026 26.3329 61.8588C24.913 60.9644 23.1489 61.0106 21.5848 61.5025C19.4813 62.1644 17.5322 63.4775 16.0174 65.1427C15.765 65.9446 15.5349 66.7847 15.3337 67.6715C12.3817 80.682 19.7617 93.6925 19.7617 93.6925H104.222C104.222 93.6925 107.761 87.5685 109.47 77.35C110.287 72.4643 109.345 67.6079 107.435 62.9243Z" fill="#6AB0D3"/>
<path d="M118.756 88.06C118.756 86.3036 117.376 84.8591 115.608 84.6859C115.928 84.0933 116.112 83.4202 116.112 82.705C116.112 80.339 114.129 78.421 111.684 78.421C111.245 78.421 110.822 78.485 110.422 78.6C109.87 76.4482 107.867 74.851 105.472 74.851C104.577 74.851 103.737 75.0752 103.006 75.467C102.668 73.6953 101.067 72.352 99.1378 72.352C97.4244 72.352 95.9707 73.4132 95.4303 74.8917C94.6667 72.7595 93.0069 71.281 91.0813 71.281C88.4545 71.281 86.3219 74.0313 86.286 77.4412C84.1736 77.6937 82.5328 79.5532 82.5328 81.8125C82.5328 82.4089 82.6484 82.977 82.8553 83.4954C81.2324 84.0721 80.0728 85.576 80.0728 87.346C80.0728 89.6134 81.9726 91.4515 84.3163 91.4515H115.804C115.804 91.4515 115.804 91.4348 115.805 91.4051C117.477 91.1476 118.756 89.7503 118.756 88.06Z" fill="#4A88C6"/>
<path d="M53.9159 86.5894C52.7919 85.502 51.014 85.433 49.8064 86.3816C49.5213 85.8509 49.0175 85.4489 48.4104 85.2856C48.4945 84.9808 48.544 84.6621 48.544 84.3313C48.544 82.2937 46.8367 80.6423 44.731 80.6423C43.7273 80.6423 42.8171 81.0204 42.1362 81.6335C41.7475 81.0385 41.0636 80.6423 40.2823 80.6423C40.1229 80.6423 39.9677 80.6596 39.8179 80.691C39.4316 79.2254 38.09 78.1333 36.4705 78.0709C36.4826 77.925 36.49 77.7774 36.49 77.6277C36.49 75.1083 34.7276 73.066 32.554 73.066C30.5215 73.066 28.8497 74.8512 28.6406 77.1425C28.1422 76.8035 27.4896 76.5963 26.773 76.5963C26.5201 76.5963 26.2763 76.6243 26.0431 76.6722C25.7885 74.2177 23.9376 72.3123 21.6889 72.3123C19.3425 72.3123 17.4319 74.3876 17.3133 76.9956C16.7187 76.5234 15.9581 76.2393 15.1288 76.2393C13.2267 76.2393 11.6848 77.7313 11.6848 79.5713C11.6848 79.9423 11.7502 80.2979 11.8656 80.6311C11.4297 80.4607 10.9539 80.3647 10.4548 80.3647C8.37167 80.3647 6.68288 81.9984 6.68288 84.014C6.68288 84.3686 6.73774 84.7106 6.8354 85.035C6.77095 85.0312 6.70724 85.0255 6.6418 85.0255C4.80762 85.0255 3.3208 86.464 3.3208 88.2385C3.3208 90.013 4.80762 91.4515 6.6418 91.4515H50.5909C51.6999 91.8839 53.017 91.6657 53.9159 90.796C55.1163 89.6344 55.1163 87.7511 53.9159 86.5894Z" fill="#4A88C6"/>
<path d="M46.6172 15.0535C46.6172 13.7062 47.7461 12.614 49.1387 12.614C50.5313 12.614 51.6602 13.7062 51.6602 15.0535C51.6602 16.4008 50.5313 17.493 49.1387 17.493C47.7461 17.493 46.6172 16.4008 46.6172 15.0535Z" fill="#75D1EA"/>
<path d="M36.9614 11.543C36.9614 10.5243 37.815 9.69849 38.8679 9.69849C39.9208 9.69849 40.7744 10.5243 40.7744 11.543C40.7744 12.5616 39.9208 13.3875 38.8679 13.3875C37.815 13.3875 36.9614 12.5616 36.9614 11.543Z" fill="#75D1EA"/>
<path d="M34.686 19.635C34.686 19.0435 35.1817 18.564 35.793 18.564C36.4043 18.564 36.9 19.0435 36.9 19.635C36.9 20.2264 36.4043 20.706 35.793 20.706C35.1817 20.706 34.686 20.2264 34.686 19.635Z" fill="#75D1EA"/>
<path d="M12.2383 37.4255C12.2383 36.8341 12.734 36.3545 13.3453 36.3545C13.9566 36.3545 14.4523 36.8341 14.4523 37.4255C14.4523 38.0169 13.9566 38.4965 13.3453 38.4965C12.734 38.4965 12.2383 38.0169 12.2383 37.4255Z" fill="#75D1EA"/>
<path d="M15.6211 46.9455C15.6211 45.2695 17.0253 43.911 18.7576 43.911C20.4899 43.911 21.8941 45.2695 21.8941 46.9455C21.8941 48.6215 20.4899 49.98 18.7576 49.98C17.0253 49.98 15.6211 48.6215 15.6211 46.9455Z" fill="#75D1EA"/>
<path d="M10.209 55.6919C10.209 54.739 11.0075 53.9664 11.9925 53.9664C12.9775 53.9664 13.776 54.739 13.776 55.6919C13.776 56.6449 12.9775 57.4174 11.9925 57.4174C11.0075 57.4174 10.209 56.6449 10.209 55.6919Z" fill="#75D1EA"/>
<path d="M99.7529 42.364C99.7529 40.6552 101.185 39.27 102.951 39.27C104.717 39.27 106.149 40.6552 106.149 42.364C106.149 44.0729 104.717 45.458 102.951 45.458C101.185 45.458 99.7529 44.0729 99.7529 42.364Z" fill="#75D1EA"/>
<path d="M108.732 35.5215C108.732 34.6343 109.475 33.915 110.392 33.915C111.309 33.915 112.053 34.6343 112.053 35.5215C112.053 36.4088 111.309 37.128 110.392 37.128C109.475 37.128 108.732 36.4088 108.732 35.5215Z" fill="#75D1EA"/>
<path d="M98.8921 26.0015C98.8921 25.4101 99.3878 24.9305 99.9991 24.9305C100.61 24.9305 101.106 25.4101 101.106 26.0015C101.106 26.593 100.61 27.0725 99.9991 27.0725C99.3878 27.0725 98.8921 26.593 98.8921 26.0015Z" fill="#75D1EA"/>
<path d="M105.841 51.5865C105.841 50.8634 106.447 50.2775 107.194 50.2775C107.941 50.2775 108.547 50.8634 108.547 51.5865C108.547 52.3095 107.941 52.8955 107.194 52.8955C106.447 52.8955 105.841 52.3095 105.841 51.5865Z" fill="#75D1EA"/>
<mask id="mask0_23_444" style="mask-type:luminance" maskUnits="userSpaceOnUse" x="0" y="0" width="123" height="119">
<path d="M123 0H0V119H123V0Z" fill="white"/>
</mask>
<g mask="url(#mask0_23_444)">
<path d="M126.69 89.012H-3.68994V125.426H126.69V89.012Z" fill="#B2CDF9"/>
<path d="M99.8765 91.3304C99.8765 90.4407 103.107 89.7191 107.093 89.7191C111.078 89.7191 114.309 90.4405 114.309 91.3304C114.309 92.2203 111.078 92.9416 107.093 92.9416C103.107 92.9416 99.8765 92.2203 99.8765 91.3304Z" fill="#789FD6"/>
<path d="M6.56006 91.3304C6.56006 90.4407 10.268 89.7191 14.8421 89.7191C19.416 89.7191 23.124 90.4405 23.124 91.3304C23.124 92.2203 19.416 92.9416 14.8421 92.9416C10.2678 92.9416 6.56006 92.2203 6.56006 91.3304Z" fill="#789FD6"/>
<path d="M105.534 105.672H17.4658L24.8458 89.012H98.1538L105.534 105.672Z" fill="#1F848C"/>
<path d="M61.1662 103.649C79.3007 103.649 94.0017 101.215 94.0017 98.2125C94.0017 95.2101 79.3007 92.7761 61.1662 92.7761C43.0316 92.7761 28.3306 95.2101 28.3306 98.2125C28.3306 101.215 43.0316 103.649 61.1662 103.649Z" fill="#19707C"/>
<path d="M99.5708 100.747C99.5708 101.784 95.5785 102.626 90.6531 102.626C85.7279 102.626 81.7354 101.784 81.7354 100.747C81.7354 99.7089 85.7279 98.8673 90.6531 98.8673C95.5783 98.8671 99.5708 99.7086 99.5708 100.747Z" fill="#19707C"/>
</g>
<path d="M61.3463 83.2405C61.3463 83.2405 69.987 83.3298 72.1395 82.8835C74.292 82.4373 77.736 80.2358 82.4408 80.206C87.1455 80.1763 88.7753 85.4123 86.0693 88.298C83.3633 91.1838 67.281 96.271 61.746 96.4495C56.211 96.628 42.2505 92.1655 37.392 88.298C32.5335 84.4305 35.1165 79.4325 40.0365 80.0275C44.9565 80.6225 48.9023 82.229 51.3882 82.8835C53.874 83.538 61.3463 83.2405 61.3463 83.2405Z" fill="#313A4C"/>
<path d="M83.5479 76.2493C83.2096 74.1073 78.3511 66.759 78.3511 66.759L73.3081 68.6035L75.9834 73.0958L76.5735 75.9351C77.0303 78.1333 79.3017 79.5825 81.5378 78.9932C83.0426 78.5964 83.7451 77.4988 83.5479 76.2493Z" fill="#F4CFA2"/>
<path d="M80.2438 69.7452C79.2178 68.0704 78.3511 66.759 78.3511 66.759L73.3081 68.6035L75.2707 71.8996C77.0594 71.5654 78.7696 70.7958 80.2438 69.7452Z" fill="#DBA182"/>
<path d="M39.9798 76.2493C40.3181 74.1073 45.1766 66.759 45.1766 66.759L50.2196 68.6035L47.5443 73.0958L46.9542 75.9351C46.4974 78.1333 44.226 79.5825 41.9899 78.9932C40.4851 78.5964 39.7825 77.4988 39.9798 76.2493Z" fill="#F4CFA2"/>
<path d="M46.4021 70.7765C47.1634 71.0147 47.9295 71.1342 48.6977 71.1587L50.2195 68.6035L45.1765 66.759C45.1765 66.759 44.4975 67.786 43.6294 69.184C44.3049 69.9818 45.4495 70.4783 46.4021 70.7765Z" fill="#DBA182"/>
<path d="M71.9549 57.001C70.8063 56.1545 65.3321 55.5435 62.2736 55.4186V55.3945C62.1176 55.3945 61.9464 55.3969 61.7639 55.4014C61.5813 55.3969 61.4099 55.3945 61.2542 55.3945V55.4186C58.1956 55.5435 52.7212 56.1545 51.5728 57.001C50.2813 57.953 44.521 67.354 44.521 67.5523C44.521 67.7508 49.072 70.567 49.2565 70.4283C49.441 70.2893 52.024 66.0053 52.024 66.0053H61.2952H62.2328H71.504C71.504 66.0053 74.087 70.2893 74.2715 70.4283C74.456 70.567 79.007 67.7508 79.007 67.5523C79.007 67.354 73.2464 57.953 71.9549 57.001Z" fill="#1F848C"/>
<path d="M72.0165 60.5115L61.7637 60.6885L51.5112 60.5115C51.5112 60.5115 51.3882 82.467 51.3882 82.8835C51.3882 83.3 54.735 85.6638 61.7637 85.6638C68.9619 85.6638 72.1395 83.3 72.1395 82.8835C72.1395 82.467 72.0165 60.5115 72.0165 60.5115Z" fill="#1F848C"/>
<path d="M79.0072 67.5522C79.0072 67.5091 78.7348 67.0312 78.296 66.3008C76.788 67.2649 74.2965 68.6365 73.4097 69.1199C73.8483 69.8227 74.207 70.3796 74.2717 70.4282C74.4562 70.5669 79.0072 67.7507 79.0072 67.5522Z" fill="white"/>
<path d="M83.5475 76.2493C83.5471 76.2464 83.5466 76.2438 83.5461 76.2407C83.442 75.6002 82.9444 75.0845 82.3016 74.9008L75.983 73.0958C75.983 73.0958 66.7888 70.6563 66.4198 70.329C66.0508 70.0018 63.8368 63.9923 63.6523 63.07C63.4678 62.1478 62.1763 61.404 62.0225 62.713C61.8688 64.022 61.8073 69.1688 62.1148 72.2033C62.4223 75.2378 65.159 74.137 65.6203 74.2858C66.0815 74.4345 72.662 77.0525 77.1208 78.5698C81.5795 80.087 83.8858 78.3913 83.5475 76.2493Z" fill="#F4CFA2"/>
<path d="M44.521 67.5522C44.521 67.5091 44.7931 67.0312 45.2319 66.3008C46.7397 67.2649 49.2314 68.6365 50.1182 69.1199C49.6796 69.8227 49.3209 70.3796 49.2565 70.4282C49.072 70.5669 44.521 67.7507 44.521 67.5522Z" fill="white"/>
<path d="M39.9798 76.2493C39.9803 76.2464 39.9806 76.2438 39.9811 76.2407C40.0854 75.6002 40.5833 75.0845 41.2261 74.9008L47.5443 73.0958C47.5443 73.0958 56.7386 70.6563 57.1076 70.329C57.4766 70.0018 59.6906 63.9923 59.8751 63.07C60.0596 62.1478 61.3511 61.404 61.5046 62.713C61.6583 64.022 61.7198 69.1688 61.4126 72.2033C61.1051 75.2378 58.3683 74.137 57.9071 74.2858C57.4458 74.4345 50.8653 77.0525 46.4066 78.5698C41.9478 80.087 39.6416 78.3913 39.9798 76.2493Z" fill="#F4CFA2"/>
<path d="M62.2735 55.3945C62.1176 55.3945 61.9464 55.3969 61.7638 55.4014C61.5813 55.3969 61.4098 55.3945 61.2539 55.3945L61.2541 55.4186C60.1594 55.4633 58.7555 55.5706 57.3511 55.7282C57.3307 55.8727 57.3179 56.0188 57.3179 56.1676C57.3179 58.3038 59.4657 60.0355 62.1146 60.0355C64.7643 60.0355 66.9116 58.3038 66.9116 56.1676C66.9116 56.0478 66.9028 55.93 66.8897 55.8129C65.257 55.6087 63.5537 55.4709 62.2733 55.4186V55.3945H62.2735Z" fill="white"/>
<path d="M62.2735 55.3945C62.1175 55.3945 61.9463 55.3969 61.7638 55.4014C61.5813 55.3969 61.4098 55.3945 61.2538 55.3945L61.2541 55.4186C60.4748 55.4505 59.5375 55.5145 58.556 55.6054C58.5331 55.7313 58.5171 55.8589 58.5171 55.9895C58.5171 57.518 60.1279 58.757 62.1146 58.757C64.1018 58.757 65.7123 57.518 65.7123 55.9895C65.7123 55.8831 65.703 55.7787 65.6877 55.6756C64.4501 55.5466 63.241 55.4581 62.2733 55.4186V55.3945H62.2735Z" fill="#F4CFA2"/>
<path d="M59.6548 55.93V53.193H64.1443V55.8705" fill="#F4CFA2"/>
<path d="M64.1443 55.0668V53.193H59.6548V55.097C60.9175 55.8574 62.946 55.91 64.1443 55.0668Z" fill="#DBA182"/>
<path d="M66.3205 47.3225H57.4379C55.3381 47.3225 53.6527 47.8775 53.7115 46.2441C53.7115 46.2441 52.9342 39.1017 53.4958 37.1356C54.1846 34.7232 57.3385 32.2195 61.8792 32.2195C66.4196 32.2195 69.5736 34.7232 70.2626 37.1356C70.824 39.1017 70.0469 46.2441 70.0469 46.2441C70.1054 47.8775 68.4201 47.3225 66.3205 47.3225Z" fill="#313A4C"/>
<path d="M55.4311 44.1787C55.4311 44.1787 54.8468 42.8102 53.3708 43.3755C51.8948 43.9407 52.2023 49.0577 55.4003 47.9272L55.4311 44.1787Z" fill="#DBA182"/>
<path d="M57.9108 37.8123H65.8473C67.5358 37.8123 68.892 39.161 68.8448 40.7946L68.6224 48.9511C68.5206 52.4833 65.5317 54.8193 61.8793 54.8193C58.2269 54.8193 55.2378 52.4833 55.1354 48.9511L54.9133 40.7946C54.8661 39.161 56.2215 37.8123 57.9108 37.8123Z" fill="#F4CFA2"/>
<path d="M68.2651 44.1787C68.2651 44.1787 68.8494 42.8102 70.3254 43.3755C71.8014 43.9407 71.4939 49.0577 68.2959 47.9272L68.2651 44.1787Z" fill="#DBA182"/>
<path d="M57.9108 37.8123H65.8473C67.5358 37.8123 68.892 39.161 68.8448 40.7946L68.6224 48.9511C68.5206 52.4833 65.5317 54.8193 61.8793 54.8193C58.2269 54.8193 55.2378 52.4833 55.1354 48.9511L54.9133 40.7946C54.8661 39.161 56.2215 37.8123 57.9108 37.8123Z" fill="#F4CFA2"/>
<path d="M59.1867 40.1499C60.1512 40.2882 61.1286 40.2703 62.1005 40.3279C62.9947 40.381 63.9239 40.4536 64.8122 40.3034C66.0665 40.0913 67.1652 39.388 68.4183 39.2253C67.8951 38.3811 66.9425 37.812 65.8476 37.812H57.9111C56.5815 37.812 55.4617 38.6493 55.0669 39.8019C56.35 39.5135 58.2159 40.0107 59.1867 40.1499Z" fill="#DBA182"/>
<path d="M55.0835 36.8602C55.0835 35.4965 58.126 34.391 61.8792 34.391C65.6327 34.391 68.675 35.4965 68.675 36.8602C68.675 38.224 65.6327 39.3295 61.8792 39.3295C58.1263 39.3295 55.0835 38.224 55.0835 36.8602Z" fill="#313A4C"/>
<path d="M54.5352 44.4994C54.4545 44.3623 54.349 44.2405 54.221 44.1548C54.0948 44.0691 53.9416 44.0229 53.8028 44.042C53.6624 44.0589 53.5605 44.1419 53.5069 44.2167C53.4009 44.373 53.411 44.4847 53.4223 44.4863C53.4447 44.4946 53.4771 44.3904 53.5869 44.2831C53.6417 44.2319 53.7209 44.1872 53.8159 44.1876C53.9101 44.1869 54.0151 44.2286 54.1064 44.3031C54.1984 44.3773 54.2766 44.4818 54.3362 44.5996C54.394 44.7191 54.4304 44.8521 54.4589 44.9909C54.486 45.1258 54.4956 45.2629 54.456 45.3481C54.4245 45.4317 54.3128 45.5042 54.2058 45.6004C54.1035 45.6973 54.0092 45.791 53.9647 45.9355C53.9241 46.0781 53.9765 46.2073 54.0292 46.2811C54.1406 46.4334 54.2459 46.4862 54.3158 46.5231C54.4604 46.5886 54.4926 46.56 54.5086 46.5291C54.5263 46.4958 54.5258 46.4653 54.426 46.3718C54.3795 46.3246 54.301 46.2568 54.2429 46.1568C54.1846 46.0521 54.1942 45.9717 54.3898 45.7922C54.4395 45.7494 54.4909 45.7051 54.5438 45.6594C54.6009 45.6078 54.6656 45.5352 54.7012 45.4455C54.7718 45.2622 54.7367 45.0916 54.703 44.9409C54.6648 44.7917 54.6139 44.6382 54.5352 44.4994Z" fill="#44261D"/>
<path d="M70.1894 44.2163C70.1357 44.1418 70.0336 44.0585 69.8934 44.0416C69.7547 44.0228 69.6012 44.069 69.4752 44.1547C69.3473 44.2401 69.242 44.3622 69.1613 44.4991C69.0821 44.6378 69.0314 44.7913 68.9933 44.9406C68.9596 45.0912 68.9244 45.2621 68.995 45.4454C69.031 45.5351 69.0954 45.6074 69.1527 45.6591C69.2056 45.7048 69.257 45.7491 69.3065 45.7921C69.5023 45.9713 69.5119 46.052 69.4538 46.1567C69.3955 46.2567 69.317 46.3243 69.2706 46.3714C69.1709 46.465 69.1702 46.4954 69.1879 46.529C69.2036 46.5597 69.2359 46.5885 69.3808 46.5228C69.4506 46.4859 69.5562 46.4331 69.6674 46.281C69.7198 46.2072 69.7724 46.0777 69.7318 45.9352C69.6873 45.7907 69.5933 45.6969 69.4907 45.6003C69.3837 45.5039 69.2718 45.4316 69.2405 45.348C69.2012 45.2628 69.211 45.1257 69.2373 44.9908C69.2661 44.852 69.3028 44.7187 69.3603 44.5995C69.4196 44.4815 69.4979 44.377 69.5901 44.303C69.6814 44.2282 69.7867 44.1866 69.8809 44.1875C69.9758 44.1868 70.055 44.2316 70.1102 44.283C70.2196 44.3903 70.2521 44.4943 70.2747 44.4857C70.2853 44.4843 70.2956 44.3727 70.1894 44.2163Z" fill="#44261D"/>
<path d="M64.8445 42.3124C64.1028 42.3124 64.0625 42.3709 64.0625 42.4433C64.0625 42.5156 64.1028 42.5742 64.8445 42.5742C65.586 42.5742 66.7478 42.5156 66.7478 42.4433C66.7478 42.3709 65.5857 42.3124 64.8445 42.3124Z" fill="#44261D"/>
<path d="M66.1672 45.1513C65.7999 45.4702 65.1072 45.4778 64.7163 45.2727C64.5215 45.1668 64.4105 45.0354 64.3352 44.9302C64.2609 44.8233 64.2211 44.74 64.1894 44.6839C64.1306 44.5691 64.1013 44.5611 64.0627 44.5656C64.027 44.5691 63.9889 44.5906 64.0063 44.7379C64.0179 44.8105 64.044 44.9164 64.1219 45.0551C64.1999 45.1908 64.337 45.3676 64.5874 45.5028C64.8405 45.6337 65.1625 45.6808 65.473 45.6492C65.7881 45.6249 66.0941 45.4819 66.2944 45.29C66.4986 45.1004 66.6041 44.8826 66.6589 44.7281C66.7118 44.5708 66.715 44.4699 66.6971 44.4663C66.6597 44.4497 66.5512 44.8459 66.1672 45.1513Z" fill="#44261D"/>
<path d="M59.8089 42.4435C59.8089 42.3712 59.7666 42.3126 58.9882 42.3126C58.2099 42.3126 56.9902 42.3712 56.9902 42.4435C56.9902 42.5159 58.2099 42.5744 58.9882 42.5744C59.7666 42.5742 59.8089 42.5159 59.8089 42.4435Z" fill="#44261D"/>
<path d="M59.8087 44.5656C59.7701 44.561 59.741 44.5694 59.682 44.6838C59.6503 44.74 59.6104 44.8233 59.5361 44.9302C59.4611 45.0354 59.3501 45.167 59.1551 45.2729C58.7639 45.4778 58.0714 45.4704 57.7042 45.1513C57.3202 44.8462 57.2117 44.4499 57.1745 44.4663C57.1563 44.4699 57.1598 44.5708 57.2127 44.7284C57.2675 44.8828 57.3733 45.1003 57.5775 45.29C57.7772 45.4819 58.0835 45.6249 58.3986 45.6494C58.7091 45.6811 59.0308 45.6337 59.2842 45.5028C59.5346 45.3679 59.6714 45.1908 59.7494 45.0554C59.8274 44.9166 59.8535 44.8107 59.865 44.7379C59.8827 44.5906 59.8441 44.5691 59.8087 44.5656Z" fill="#44261D"/>
<path d="M60.6745 48.3292C60.7195 48.3623 60.7633 48.3937 60.8066 48.4218C60.9793 48.5356 61.139 48.6244 61.2752 48.6962C61.5483 48.839 61.7284 48.9076 61.7458 48.8795C61.7638 48.8507 61.6164 48.7312 61.3699 48.5534C61.2455 48.4635 61.1011 48.359 60.9414 48.2433C60.9038 48.2138 60.8647 48.1833 60.8253 48.1524L60.7736 48.1062C60.7685 48.1003 60.7731 48.1048 60.7719 48.1022C60.7729 48.1003 60.7712 48.105 60.7759 48.0962C60.7837 48.0777 60.7965 48.0553 60.81 48.032C60.8346 47.987 60.8652 47.9399 60.8944 47.8925C61.3909 47.1338 61.8061 46.5095 61.7458 46.4697C61.6934 46.4343 61.1918 46.9898 60.6821 47.768C60.6514 47.8183 60.6206 47.8666 60.5923 47.9196C60.5781 47.9449 60.5638 47.9708 60.5505 48.0027C60.5247 48.0432 60.5274 48.1003 60.521 48.1481C60.5402 48.1921 60.5677 48.2421 60.6054 48.2719C60.6292 48.2943 60.6514 48.31 60.6745 48.3292Z" fill="#44261D"/>
<path d="M63.3447 50.769C63.2842 50.8392 63.1929 50.9316 63.0495 50.9873C62.7575 51.097 62.266 51.0751 61.7361 51.0796C61.467 51.0806 61.221 51.0834 60.9976 51.0649C60.7752 51.0468 60.5796 51.0075 60.4256 50.9537C60.2714 50.8997 60.1641 50.8273 60.099 50.7674C60.0338 50.7067 60.0106 50.6612 59.9934 50.6643C59.9769 50.6653 59.9688 50.7302 60.0215 50.8228C60.0729 50.9144 60.1873 51.0258 60.3543 51.1086C60.5208 51.1915 60.7339 51.2522 60.971 51.2845C61.2082 51.3169 61.4721 51.3202 61.7368 51.3195C62.2677 51.3117 62.7712 51.319 63.1262 51.1398C63.3001 51.0451 63.3887 50.908 63.4271 50.818C63.4674 50.7259 63.4721 50.6705 63.4581 50.6643C63.4411 50.6562 63.4059 50.6995 63.3447 50.769Z" fill="#44261D"/>
<path d="M62.0099 94.1492C62.0099 94.1492 60.4592 95.0576 59.9394 95.1081C59.4191 95.1588 53.1178 95.5793 50.5323 96.0924C47.9471 96.6053 47.737 98.3008 49.0974 100.714C50.2044 102.677 53.5552 102.132 57.2973 100.971C61.0397 99.8105 63.1366 98.6995 63.1366 98.6995L62.0099 94.1492Z" fill="#DBA182"/>
<path d="M81.2107 82.229C81.2107 82.229 62.1457 92.7903 59.409 94.2183C59.1015 94.486 61.5922 98.889 62.2687 98.651C62.9452 98.413 83.3325 91.7193 86.2537 88.1493C89.175 84.5793 86.2306 81.4108 85.116 80.8977C84.3258 80.534 83.7937 81.0093 81.2107 82.229Z" fill="#354156"/>
<path d="M61.5615 93.772C61.5615 93.772 63.0375 94.5852 63.5499 94.6842C64.0626 94.7835 70.8069 95.7157 73.3284 96.4692C75.8499 97.223 75.0711 99.8807 73.2669 101.666C71.463 103.451 69.4335 102.697 65.8254 101.19C62.2176 99.6822 59.9829 98.1947 59.9829 98.1947L61.5615 93.772Z" fill="#F4CFA2"/>
<path d="M65.1492 94.931C64.2946 94.8006 63.6896 94.7111 63.5499 94.6842C63.0375 94.5852 61.5615 93.772 61.5615 93.772L59.9829 98.1947C59.9829 98.1947 60.7659 98.7145 62.145 99.449C63.6119 98.2964 64.7135 96.7008 65.1492 94.931Z" fill="#DBA182"/>
<path d="M43.4804 82.824C47.5788 85.1124 62.9452 93.6828 63.3142 94.0695C63.6832 94.4563 61.7459 98.651 60.8234 98.9485C59.9009 99.246 44.9564 93.1473 39.1754 89.607C33.3944 86.0668 34.5937 83.1215 35.4547 81.753C36.3157 80.3845 38.8987 80.2655 43.4804 82.824Z" fill="#354156"/>
<path d="M87.084 100.28C87.084 99.4647 89.4195 98.7888 92.3107 98.7888C95.2022 98.7888 97.5542 99.4647 97.5542 100.28C97.5542 101.095 95.2104 101.756 92.3191 101.756C89.4279 101.756 87.084 101.095 87.084 100.28Z" fill="#D3D3D3"/>
<path d="M88.4219 100.297C88.4219 99.836 90.1436 99.469 92.275 99.469C94.4061 99.469 96.1401 99.836 96.1401 100.297C96.1401 100.757 94.4125 101.13 92.2809 101.13C90.1495 101.13 88.4219 100.757 88.4219 100.297Z" fill="#727275"/>
<path d="M96.7457 94.7067C96.3202 94.4513 95.7275 94.4808 95.1608 94.7862C94.6023 95.0868 94.0387 95.6951 94.0333 96.3794C94.0274 96.4843 93.9711 97.4692 93.9517 97.9016C93.9337 98.3029 94.4085 98.6051 95.1066 98.6358C95.1421 98.6375 95.1775 98.6382 95.2134 98.6382C96.1917 98.6382 97.312 98.0451 97.3949 96.3472C97.4441 95.3429 97.0692 94.9009 96.7457 94.7067ZM96.6579 96.3139C96.62 97.0915 96.3123 97.6136 95.7679 97.824C95.3204 97.997 94.8574 97.908 94.6941 97.8273C94.718 97.3318 94.7711 96.4101 94.7711 96.4101L94.7713 96.3901C94.7713 96.0557 95.086 95.6435 95.5197 95.41C95.8441 95.2351 96.1652 95.1984 96.3568 95.3136C96.576 95.445 96.6828 95.8003 96.6579 96.3139Z" fill="#D3D3D3"/>
<path d="M89.0371 92.4828L88.982 93.3503C88.8954 94.5746 88.9582 95.8041 89.1687 97.0143L89.6398 99.7233C89.753 100.375 90.3439 100.734 91.0364 100.734H93.5252C94.2174 100.734 94.8085 100.375 94.9217 99.7233L95.3928 97.0143C95.6031 95.8039 95.6659 94.5744 95.5795 93.3503L95.5244 92.4828C95.49 91.9952 92.6051 92.172 92.0927 92.172H92.4688C91.9567 92.172 89.0716 91.9952 89.0371 92.4828Z" fill="white"/>
<path d="M92.2807 94.1217C93.646 94.1217 94.8514 93.9239 95.5945 93.6209C95.5896 93.5307 95.5859 93.4405 95.5793 93.3506L95.5242 92.4828C95.4929 92.0383 93.0925 92.1461 92.2807 92.1687C91.4686 92.1461 89.0681 92.0383 89.0369 92.4828L88.9818 93.3506C88.9754 93.4405 88.9715 93.5307 88.9668 93.6209C89.71 93.9239 90.9154 94.1217 92.2807 94.1217Z" fill="#D3D3D3"/>
<path d="M89.0366 92.4683C89.0366 92.207 90.4841 91.965 92.2757 91.965C94.0673 91.965 95.5249 92.2072 95.5249 92.4683C95.5249 92.7299 94.0725 92.9417 92.2806 92.9417C90.4888 92.9417 89.0366 92.7297 89.0366 92.4683Z" fill="#A2A2A3"/>
<path d="M92.2757 92.3442C90.7527 92.3442 89.4819 92.4513 89.1343 92.5815C89.4829 92.7881 90.7574 92.9416 92.2809 92.9416C93.8038 92.9416 95.0784 92.7881 95.4272 92.5815C95.0776 92.4513 93.7994 92.3442 92.2757 92.3442Z" fill="#727275"/>
<path d="M92.2193 86.3793C92.2013 86.3855 92.2237 86.5023 92.2668 86.6894C92.299 86.8772 92.3504 87.1435 92.3054 87.4301C92.2712 87.7207 92.0828 87.9932 91.8924 88.2914C91.7984 88.4423 91.7157 88.6048 91.652 88.7698C91.5952 88.9368 91.5561 89.1032 91.5386 89.2605C91.4752 89.8955 91.6646 90.2249 91.759 90.3667C91.8668 90.5122 91.9157 90.5014 91.9421 90.4798C91.9728 90.4558 91.9826 90.43 91.9295 90.283C91.8879 90.1364 91.7514 89.8539 91.8075 89.2888C91.8232 89.1484 91.856 89.0016 91.9027 88.8531C91.9561 88.7065 92.0247 88.5587 92.1084 88.4116C92.2769 88.1238 92.4825 87.789 92.4951 87.4517C92.5194 87.1207 92.4318 86.8482 92.3679 86.662C92.2924 86.4783 92.2363 86.3731 92.2193 86.3793Z" fill="white"/>
<path d="M93.9258 87.511C93.8926 87.3353 93.8621 87.2325 93.8441 87.2349C93.7922 87.2356 93.8734 87.6735 93.7302 88.1852C93.6623 88.4423 93.4761 88.6722 93.2815 88.9271C93.1851 89.0556 93.0975 89.1956 93.0254 89.3376C92.958 89.4816 92.9049 89.6261 92.8692 89.7632C92.73 90.318 92.8217 90.6345 92.8778 90.7802C92.943 90.9291 92.9903 90.9296 93.022 90.9146C93.0577 90.8987 93.0761 90.8775 93.0638 90.7366C93.0599 90.5976 93.0067 90.3268 93.1315 89.8277C93.1942 89.5775 93.3118 89.3141 93.4867 89.0639C93.6599 88.8164 93.8648 88.528 93.9155 88.2312C93.9772 87.9403 93.9496 87.6869 93.9258 87.511Z" fill="white"/>
<path d="M114.8 67.6515C115.312 67.1952 115.312 65.1127 115.107 65.1127C114.902 65.1127 113.652 65.2715 113.672 65.0732C113.693 64.8747 114.882 64.5575 114.964 63.9227C115.046 63.2882 115.005 61.8402 115.005 61.8402C115.005 61.8402 113.289 62.0984 110.96 63.3979C110.804 63.485 110.714 63.6516 110.728 63.8251C110.765 64.2902 110.796 65.1853 110.495 65.331C110.166 65.4899 109.969 64.7571 109.904 64.4599C109.892 64.4032 109.825 64.3768 109.776 64.4101C109.4 64.6677 108.138 65.5478 108.138 65.7672C108.138 66.0252 108.835 68.4447 108.445 68.663C108.056 68.8812 107.564 66.9177 107.379 66.997C107.195 67.0762 105.924 67.592 105.186 68.901C104.448 70.21 104.612 72.3917 107.461 72.7882C107.461 72.7882 107.789 74.8112 110.27 74.4742C112.75 74.137 113.529 71.281 113.324 71.2612C113.119 71.2412 110.372 71.3207 110.475 70.8645C110.577 70.4082 113.365 70.6265 113.611 70.4677C113.857 70.3092 114.554 68.7422 114.247 68.8217C113.939 68.901 112.115 68.9802 112.115 68.7027C112.114 68.425 114.287 68.1077 114.8 67.6515ZM112.51 63.3472C112.592 63.1587 112.796 63.0064 112.896 63.0469C112.995 63.0873 112.952 63.3049 112.87 63.4934C112.789 63.6819 112.642 63.802 112.542 63.7616C112.443 63.7211 112.428 63.5357 112.51 63.3472ZM106.468 71.3976C106.333 71.4211 106.172 71.156 106.106 70.8059C106.042 70.4556 106.132 70.056 106.266 70.0326C106.401 70.0091 106.528 70.3711 106.593 70.7212C106.658 71.0715 106.602 71.3745 106.468 71.3976ZM109.436 73.0057C109.029 72.9772 108.706 72.851 108.716 72.7237C108.725 72.5969 109.063 72.5171 109.471 72.5457C109.878 72.5745 110.307 72.6599 110.298 72.787C110.288 72.9139 109.844 73.0343 109.436 73.0057ZM111.239 68.4611C110.901 68.5487 110.599 68.5202 110.565 68.3969C110.531 68.2741 110.778 68.1034 111.116 68.0156C111.454 67.928 111.829 67.8885 111.863 68.0113C111.897 68.1341 111.578 68.3735 111.239 68.4611Z" fill="#1B7577"/>
<path d="M114.216 62.8122C114.16 62.8548 114.075 62.9181 113.973 63.0076C113.765 63.1818 113.476 63.4508 113.128 63.7968C112.702 64.2229 112.19 64.7734 111.643 65.4233C111.643 65.3591 111.642 65.2865 111.64 65.1929C111.638 64.9347 111.653 64.6032 111.687 64.3361C111.718 64.0691 111.759 63.8663 111.73 63.8582C111.705 63.8504 111.615 64.0417 111.546 64.3114C111.474 64.5799 111.435 64.9245 111.437 65.1934C111.442 65.41 111.458 65.5411 111.478 65.6225C111.186 65.976 110.887 66.3537 110.585 66.758C110.181 67.3061 109.775 67.8995 109.385 68.5235C109.384 68.4638 109.382 68.3976 109.379 68.3224C109.367 67.9963 109.352 67.5779 109.347 67.24C109.34 66.9023 109.339 66.644 109.301 66.6395C109.265 66.635 109.198 66.8889 109.156 67.2307C109.112 67.5722 109.096 67.999 109.108 68.331C109.121 68.613 109.142 68.7801 109.167 68.8793C108.75 69.5755 108.358 70.308 108.025 71.0658C107.99 71.1437 107.958 71.2224 107.924 71.3007C107.914 71.2232 107.9 71.1384 107.88 71.0435C107.788 70.6113 107.58 70.0879 107.375 69.6885C107.171 69.2875 106.979 69.005 106.949 69.0195C106.912 69.0371 107.043 69.3487 107.199 69.7611C107.357 70.1726 107.529 70.6893 107.615 71.097C107.694 71.4692 107.706 71.6782 107.718 71.7958C107.184 73.1464 106.832 74.5249 106.59 75.763C106.305 77.2277 106.208 78.3643 106.155 79.2299C106.106 80.0967 106.111 80.6965 106.127 81.109C106.162 81.9341 106.218 82.0131 106.252 82.0103C106.293 82.0074 106.305 81.9262 106.319 81.1075C106.327 80.6982 106.342 80.1039 106.404 79.2452C106.47 78.3874 106.574 77.2619 106.856 75.8111C107.09 74.612 107.425 73.2783 107.924 71.9705C108.024 72.0105 108.263 72.0438 108.834 72.0509C109.302 72.0542 109.904 72.0171 110.384 71.9443C110.864 71.8727 111.216 71.7603 111.208 71.7268C111.198 71.6899 110.839 71.7368 110.364 71.7603C109.888 71.7853 109.297 71.7925 108.835 71.7891C108.352 71.7834 108.108 71.7903 107.985 71.8093C108.07 71.5921 108.159 71.3755 108.254 71.1606C108.474 70.6515 108.72 70.1541 108.981 69.669C109.084 69.7042 109.314 69.7299 109.827 69.7228C110.268 69.7135 110.833 69.6626 111.282 69.5798C111.731 69.5 112.061 69.3953 112.053 69.3618C112.045 69.3246 111.705 69.3646 111.257 69.3963C110.81 69.431 110.254 69.4517 109.82 69.461C109.428 69.4662 109.204 69.4762 109.076 69.4929C109.478 68.7615 109.917 68.0642 110.359 67.4147C110.493 67.4332 110.744 67.4416 111.211 67.3909C111.683 67.3397 112.282 67.2198 112.747 67.0655C113.214 66.9156 113.543 66.7442 113.529 66.714C113.514 66.6781 113.165 66.7864 112.696 66.887C112.229 66.9929 111.64 67.081 111.18 67.1307C110.861 67.1655 110.648 67.1852 110.504 67.204C110.583 67.09 110.662 66.9756 110.741 66.8647C111.029 66.4665 111.314 66.0935 111.592 65.7427C111.608 65.7375 111.62 65.7261 111.628 65.6968C112.212 64.9642 112.759 64.3416 113.205 63.8659C113.54 63.511 113.815 63.2314 114.011 63.0457C114.203 62.8575 114.316 62.7608 114.308 62.7523C114.305 62.7492 114.274 62.7696 114.216 62.8122Z" fill="#313A4C"/>
<path d="M107.502 68.7027C107.297 65.9062 105.022 64.7557 104.939 64.9342C104.858 65.1127 104.181 66.9572 103.771 66.6597C103.361 66.3622 104.222 63.8832 104.222 63.4667C104.222 63.0502 102.418 61.4237 102.356 61.6817C102.295 61.9394 101.721 63.3477 101.516 62.6337C101.311 61.9197 101.783 60.7297 101.372 60.4917C100.963 60.2537 97.5801 58.7067 96.5961 58.3099C96.5961 58.3099 96.678 59.6189 96.4524 60.2932C96.2271 60.9677 96.432 61.1064 97.1085 61.4832C97.785 61.8602 98.154 62.3162 97.6416 62.3162C97.1289 62.3162 96.4116 61.8799 96.2064 62.1774C96.0015 62.4749 95.9196 64.6764 96.2475 65.0137C96.5754 65.3507 99.4455 66.0647 99.4659 66.4217C99.4866 66.7787 97.2315 66.5407 97.0266 66.4614C96.8214 66.3822 97.1496 68.3059 97.785 68.5042C98.4204 68.7027 100.655 68.4249 101.045 68.8812C101.434 69.3372 100.778 69.3769 99.6915 69.3372C98.6049 69.2977 97.8054 69.2382 97.8465 69.4762C97.8876 69.7142 98.2359 72.5899 100.655 73.2444C103.074 73.8989 104.324 72.3717 104.57 71.5387C104.57 71.5387 107.707 71.4992 107.502 68.7027ZM99.4229 60.7778C99.2913 60.8394 99.0957 60.7111 98.9862 60.4917C98.8767 60.272 98.9171 59.9659 99.0487 59.9043C99.1803 59.8429 99.3537 60.0492 99.4635 60.2689C99.5729 60.4884 99.5547 60.7161 99.4229 60.7778ZM101.196 66.2556C101.127 66.4007 100.794 66.3948 100.451 66.2425C100.109 66.0899 99.7751 65.8652 99.844 65.7203C99.9129 65.5754 100.359 65.5649 100.701 65.717C101.044 65.8695 101.265 66.1104 101.196 66.2556ZM102.376 71.6241C101.94 71.6144 101.481 71.3971 101.486 71.2226C101.49 71.0484 101.955 70.9827 102.391 70.9925C102.827 71.0022 103.177 71.1515 103.173 71.3257C103.169 71.5004 102.812 71.6339 102.376 71.6241ZM106.486 69.1592C106.353 69.5333 106.085 69.7832 105.886 69.7175C105.688 69.6518 105.634 69.2953 105.766 68.9209C105.899 68.547 106.126 68.1781 106.324 68.2438C106.523 68.3097 106.618 68.7853 106.486 69.1592Z" fill="#269B92"/>
<path d="M105.814 79.0088C105.79 77.9963 105.715 76.6678 105.45 74.9478C105.392 74.5166 105.294 74.076 105.214 73.6207C105.108 73.1702 105.022 72.7035 104.891 72.2379C104.829 72.0045 104.766 71.7688 104.704 71.532C104.629 71.2978 104.554 71.062 104.479 70.8249L104.365 70.4691L104.273 70.2266C104.357 70.1033 104.486 69.8682 104.66 69.4143C104.843 68.9378 105.018 68.3048 105.093 67.784C105.174 67.264 105.168 66.8651 105.134 66.8629C105.094 66.8596 105.032 67.2487 104.906 67.7488C104.784 68.2498 104.584 68.8586 104.406 69.3243C104.299 69.6033 104.22 69.8008 104.165 69.9443C104.098 69.7682 104.03 69.5921 103.962 69.4153C103.629 68.6232 103.252 67.849 102.851 67.1033C102.902 66.9957 102.972 66.7861 103.02 66.386C103.072 65.9781 103.071 65.4516 103.032 65.0327C102.993 64.6131 102.924 64.3011 102.889 64.3044C102.85 64.3083 102.851 64.6246 102.841 65.0384C102.831 65.4523 102.802 65.9631 102.751 66.356C102.729 66.5483 102.707 66.6949 102.692 66.8075C102.199 65.915 101.674 65.0687 101.147 64.2952C100.892 63.916 100.639 63.5531 100.391 63.208C100.417 63.1149 100.439 62.9383 100.448 62.6063C100.454 62.2691 100.425 61.8361 100.369 61.4922C100.315 61.1479 100.241 60.8932 100.214 60.898C100.185 60.9029 100.209 61.1633 100.226 61.506C100.245 61.8485 100.251 62.2734 100.245 62.6035C100.241 62.7741 100.239 62.9024 100.239 62.9997C99.5601 62.067 98.9281 61.2695 98.4341 60.6488C98.0814 60.207 97.798 59.8508 97.5985 59.6009C97.505 59.4802 97.4312 59.3855 97.3776 59.3162C97.3262 59.2519 97.2974 59.2196 97.2934 59.2222C97.2895 59.2246 97.3107 59.2619 97.3547 59.3312C97.3992 59.4002 97.4649 59.5026 97.5542 59.6316C97.7352 59.8881 98.0066 60.2556 98.3498 60.7099C99.0334 61.6205 100.001 62.8853 100.986 64.3954C101.106 64.576 101.225 64.7605 101.344 64.9482C101.187 64.9073 100.937 64.8542 100.535 64.7769C100.025 64.6726 99.3736 64.5248 98.8639 64.3618C98.3485 64.2104 97.9923 64.0186 97.9697 64.0512C97.9596 64.0664 98.0393 64.1312 98.1822 64.2288C98.3291 64.318 98.5421 64.4323 98.7965 64.5348C99.3028 64.7474 99.9606 64.9271 100.479 65.033C101.064 65.1458 101.343 65.171 101.476 65.1601C101.954 65.9276 102.422 66.748 102.855 67.6029C102.696 67.5948 102.452 67.591 102.075 67.5779C101.568 67.5596 100.918 67.5055 100.399 67.4239C99.8794 67.3478 99.4887 67.2568 99.4764 67.294C99.4654 67.3256 99.84 67.4801 100.362 67.6055C100.881 67.7357 101.545 67.8207 102.064 67.8392C102.535 67.8559 102.804 67.8335 102.956 67.8064C103.232 68.3614 103.493 68.9278 103.731 69.5036C103.835 69.7646 103.932 70.0272 104.025 70.2906C103.86 70.2818 103.579 70.2859 103.092 70.2802C102.544 70.2737 101.839 70.234 101.276 70.1616C100.711 70.0947 100.287 70.0081 100.276 70.046C100.266 70.0776 100.677 70.229 101.244 70.3444C101.81 70.4651 102.528 70.5353 103.088 70.5419C103.64 70.5486 103.934 70.5136 104.089 70.4805C104.618 72.0206 104.966 73.5803 105.182 74.9866C105.446 76.6926 105.528 78.0104 105.565 79.015C105.599 80.0203 105.584 80.7145 105.576 81.1927C105.551 82.1494 105.553 82.2437 105.595 82.2485C105.627 82.2527 105.693 82.1625 105.767 81.2013C105.8 80.7207 105.835 80.0217 105.814 79.0088Z" fill="#313A4C"/>
<path d="M103.074 73.9587C102.151 72.2925 100.819 71.9555 100.819 72.134C100.819 72.3125 100.716 73.8595 100.388 73.8397C100.06 73.8195 100.409 72.1535 100.081 71.9155C99.7529 71.6775 98.0105 71.3205 97.9079 71.4795C97.8053 71.6382 98.3384 72.57 97.8668 72.6295C97.3955 72.689 97.0673 71.539 96.7394 71.4395C96.4115 71.3407 93.2339 72.094 93.2339 72.094C93.2339 72.094 94.0949 74.395 94.2998 74.5537C94.505 74.712 95.6528 74.4942 95.7965 74.9305C95.9399 75.3665 94.9763 75.426 94.7918 75.5057C94.6073 75.585 94.9763 76.616 95.7758 77.35C96.5753 78.084 97.58 78.56 98.0309 78.2625C98.4818 77.965 99.3428 76.418 99.5273 76.616C99.7118 76.8145 99.2405 78.203 98.9738 78.4807C98.7074 78.758 98.8508 78.8377 99.2609 78.917C99.671 78.996 102.213 79.1947 103.012 77.0725C103.012 77.0725 103.996 75.6245 103.074 73.9587ZM95.5005 72.6944C95.4159 72.7632 95.2622 72.7206 95.1569 72.5997C95.0516 72.4788 95.0349 72.3251 95.1195 72.2563C95.2039 72.1875 95.3579 72.2299 95.4626 72.3508C95.5679 72.4717 95.5849 72.6254 95.5005 72.6944ZM97.3596 76.0224C97.0636 76.1557 96.761 76.1343 96.684 75.9741C96.6068 75.8137 96.8277 75.52 97.1236 75.3867C97.4196 75.2532 97.6784 75.3305 97.7554 75.4905C97.8326 75.6509 97.6557 75.8889 97.3596 76.0224ZM102.581 75.6097C102.42 75.6097 102.288 75.4307 102.288 75.2096C102.288 74.9888 102.359 74.7543 102.52 74.7543C102.682 74.7543 102.874 74.9888 102.874 75.2096C102.874 75.4307 102.743 75.6097 102.581 75.6097Z" fill="#2FC1AC"/>
<path d="M114.985 71.3602C114.739 71.4992 114.082 72.8677 113.713 72.6892C113.344 72.5107 113.959 71.3602 113.734 71.3602C113.509 71.3602 111.643 71.5387 111.438 71.9355C111.233 72.3322 111.479 73.9782 111.233 73.9187C110.987 73.8592 110.659 73.3635 110.7 72.7487C110.741 72.1337 110.782 72.0147 110.269 72.3322C109.757 72.6495 106.969 74.613 108.589 77.0722C110.208 79.5317 112.709 78.8772 112.75 78.778C112.791 78.6787 111.576 76.621 111.95 76.5567C112.207 76.5125 113.529 78.302 113.713 78.3217C113.895 78.3412 116.009 78.0911 116.796 75.6723C116.813 75.6183 116.775 75.5612 116.717 75.5538C116.507 75.5274 116.061 75.4422 115.907 75.1882C115.702 74.851 116.112 74.613 116.584 74.732C117.055 74.851 117.424 75.0295 118.285 72.114C118.285 72.114 115.231 71.2215 114.985 71.3602ZM109.245 75.1944C109.213 75.3946 109.089 75.5421 108.969 75.5238C108.848 75.5057 108.777 75.3286 108.809 75.1285C108.842 74.9281 108.928 74.7236 109.049 74.7417C109.169 74.7601 109.278 74.9943 109.245 75.1944ZM114.906 75.9779C114.808 76.1338 114.428 76.1624 114.18 76.0155C113.932 75.8687 113.811 75.6233 113.909 75.4676C114.008 75.3122 114.289 75.3048 114.537 75.4519C114.784 75.599 115.005 75.8225 114.906 75.9779ZM116.44 72.5321C116.38 72.6659 116.266 72.7468 116.186 72.7133C116.106 72.6797 116.089 72.544 116.148 72.4105C116.208 72.2768 116.307 72.1494 116.387 72.1832C116.467 72.2166 116.499 72.3981 116.44 72.5321Z" fill="#27AE60"/>
<path d="M114.985 71.3602C114.739 71.4992 114.082 72.8677 113.713 72.6892C113.344 72.5107 113.959 71.3602 113.734 71.3602C113.509 71.3602 111.643 71.5387 111.438 71.9355C111.233 72.3322 111.479 73.9782 111.233 73.9187C110.987 73.8592 110.659 73.3635 110.7 72.7487C110.741 72.1337 110.782 72.0147 110.269 72.3322C109.757 72.6495 106.969 74.613 108.589 77.0722C110.208 79.5317 112.709 78.8772 112.75 78.778C112.791 78.6787 111.576 76.621 111.95 76.5567C112.207 76.5125 113.529 78.302 113.713 78.3217C113.895 78.3412 116.009 78.0911 116.796 75.6723C116.813 75.6183 116.775 75.5612 116.717 75.5538C116.507 75.5274 116.061 75.4422 115.907 75.1882C115.702 74.851 116.112 74.613 116.584 74.732C117.055 74.851 117.424 75.0295 118.285 72.114C118.285 72.114 115.231 71.2215 114.985 71.3602ZM109.245 75.1944C109.213 75.3946 109.089 75.5421 108.969 75.5238C108.848 75.5057 108.777 75.3286 108.809 75.1285C108.842 74.9281 108.928 74.7236 109.049 74.7417C109.169 74.7601 109.278 74.9943 109.245 75.1944ZM114.906 75.9779C114.808 76.1338 114.428 76.1624 114.18 76.0155C113.932 75.8687 113.811 75.6233 113.909 75.4676C114.008 75.3122 114.289 75.3048 114.537 75.4519C114.784 75.599 115.005 75.8225 114.906 75.9779ZM116.44 72.5321C116.38 72.6659 116.266 72.7468 116.186 72.7133C116.106 72.6797 116.089 72.544 116.148 72.4105C116.208 72.2768 116.307 72.1494 116.387 72.1832C116.467 72.2166 116.499 72.3981 116.44 72.5321Z" fill="#269B92"/>
<path d="M105.258 81.8612C105.218 81.5533 105.15 81.1063 104.978 80.4737C104.801 79.8451 104.529 79.0176 103.937 78.0428C103.631 77.5639 103.265 77.0636 102.782 76.6402L102.605 76.476C102.544 76.4227 102.476 76.3782 102.411 76.3287C102.313 76.258 102.215 76.1861 102.116 76.1152C102.112 76.0038 102.079 75.7946 102.003 75.3872C101.934 74.9904 101.87 74.4768 101.847 74.0594C101.819 73.6426 101.822 73.3227 101.783 73.3189C101.748 73.3151 101.677 73.6326 101.655 74.0605C101.629 74.4878 101.665 75.0206 101.735 75.4295C101.778 75.6566 101.817 75.8208 101.852 75.9412C101.627 75.8022 101.401 75.6625 101.166 75.5359C100.544 75.1834 99.8916 74.8867 99.2476 74.6246C99.2232 74.5487 99.1629 74.4202 99.0822 74.1603C98.9984 73.8866 98.9265 73.5177 98.8832 73.2152C98.838 72.9127 98.8089 72.6792 98.7691 72.6792C98.7339 72.679 98.6953 72.9136 98.6921 73.2278C98.6874 73.5412 98.731 73.9344 98.8225 74.2341C98.8549 74.3388 98.8889 74.4242 98.9228 74.4944C98.4867 74.324 98.0577 74.1686 97.6486 74.0232C97.286 73.8951 96.942 73.7688 96.6171 73.645C96.5861 73.5831 96.5202 73.4884 96.4166 73.2994C96.3042 73.0907 96.1831 72.8034 96.0978 72.5633C96.0114 72.3241 95.948 72.1373 95.9091 72.1435C95.8739 72.1489 95.8712 72.3481 95.912 72.6085C95.9521 72.8684 96.051 73.1873 96.1767 73.4203C96.1915 73.447 96.205 73.4665 96.2195 73.4901C96.0992 73.4425 95.9826 73.3956 95.87 73.3489C95.856 73.3289 95.8227 73.3106 95.7558 73.3018C95.4387 73.1692 95.1541 73.0419 94.9098 72.9224C94.2454 72.599 93.8619 72.3707 93.8488 72.3915C93.8437 72.3991 93.9354 72.4626 94.1076 72.5726C94.2774 72.6861 94.5357 72.8334 94.8611 73.0129C95.0378 73.1088 95.2385 73.2095 95.4567 73.3128C95.2629 73.342 95.0311 73.4263 94.8606 73.5203C94.6865 73.616 94.5733 73.7138 94.5871 73.7352C94.6021 73.7597 94.7396 73.7059 94.9194 73.6469C95.0993 73.5874 95.3236 73.5291 95.5 73.5043C95.6441 73.4867 95.7303 73.4753 95.7844 73.4636C95.9822 73.5524 96.1905 73.6429 96.4114 73.735C96.4409 73.7607 96.468 73.7816 96.4904 73.7938C96.5361 73.8171 96.5647 73.8161 96.5856 73.8061C96.8537 73.9158 97.1354 74.0268 97.4291 74.1381C97.4262 74.1391 97.424 74.1393 97.4213 74.1403C97.2062 74.2012 96.9605 74.3414 96.79 74.4801C96.6188 74.6196 96.517 74.7505 96.5398 74.7765C96.5652 74.8055 96.7086 74.7267 96.8956 74.6344C97.0825 74.5423 97.3157 74.4425 97.5017 74.3902C97.6825 74.3357 97.7784 74.3176 97.8296 74.2909C98.418 74.5149 99.0357 74.7584 99.651 75.0368C99.5523 75.0613 99.4343 75.0985 99.2943 75.1544C99.1118 75.232 98.9137 75.3427 98.7297 75.4733C98.5497 75.609 98.3794 75.7587 98.252 75.9122C97.99 76.214 97.8655 76.4865 97.8928 76.502C97.9285 76.5243 98.1086 76.2923 98.3902 76.0398C98.528 75.9105 98.6997 75.7858 98.8731 75.6706C99.0508 75.5604 99.235 75.4657 99.4016 75.3948C99.6997 75.2755 99.8803 75.2287 99.9838 75.1922C100.342 75.3626 100.696 75.5442 101.041 75.7442C101.325 75.901 101.597 76.0771 101.868 76.2471C101.885 76.2587 101.9 76.2711 101.917 76.2828C101.792 76.3106 101.616 76.3711 101.373 76.501C101.197 76.5969 101.01 76.7292 100.837 76.877C100.667 77.0284 100.51 77.1943 100.39 77.3566C100.147 77.6791 100.032 77.9595 100.06 77.9745C100.097 77.9949 100.269 77.7517 100.537 77.4751C100.802 77.1945 101.181 76.9032 101.507 76.7283C101.832 76.5548 102.017 76.4896 102.108 76.4389C102.113 76.4363 102.114 76.4346 102.119 76.432C102.161 76.4636 102.204 76.4953 102.247 76.5262C102.308 76.5736 102.374 76.6164 102.431 76.6676L102.599 76.8256C103.059 77.2321 103.409 77.7146 103.705 78.1775C104.278 79.12 104.551 79.9256 104.738 80.5377C104.919 81.1541 105.005 81.5899 105.069 81.8891C105.183 82.49 105.206 82.5483 105.247 82.546C105.281 82.5448 105.326 82.4791 105.258 81.8612Z" fill="#313A4C"/>
<path d="M117.432 72.4243C117.356 72.4726 117.266 72.5292 117.164 72.5944C117.053 72.6554 116.929 72.7239 116.792 72.7996C116.433 72.995 115.963 73.2097 115.417 73.4222C115.547 73.1997 115.628 72.8898 115.646 72.6418C115.665 72.3924 115.639 72.2053 115.604 72.2032C115.564 72.2003 115.523 72.3814 115.457 72.6097C115.394 72.8386 115.29 73.109 115.181 73.2949C115.083 73.4567 115.015 73.5331 114.979 73.5852C114.812 73.6452 114.642 73.7047 114.464 73.7628C113.909 73.9489 113.307 74.1376 112.697 74.3563C112.723 74.2754 112.752 74.1705 112.782 74.0312C112.842 73.7425 112.879 73.3658 112.877 73.0626C112.876 72.7591 112.842 72.5309 112.806 72.5306C112.767 72.5304 112.733 72.7558 112.686 73.0488C112.64 73.342 112.575 73.7023 112.517 73.981C112.463 74.225 112.44 74.3656 112.436 74.4523C112.082 74.5848 111.727 74.7276 111.379 74.8897C110.869 75.1377 110.374 75.419 109.931 75.7425C109.869 75.7889 109.811 75.8365 109.751 75.8838C109.783 75.7941 109.815 75.691 109.844 75.5701C109.95 75.1246 109.969 74.5453 109.933 74.0869C109.9 73.6274 109.825 73.2865 109.793 73.2894C109.751 73.293 109.757 73.639 109.741 74.09C109.728 74.5413 109.68 75.0977 109.58 75.5123C109.482 75.9221 109.384 76.1171 109.34 76.2225C109.133 76.4039 108.939 76.5878 108.761 76.7725C108.073 77.4687 107.34 78.5154 107.071 79.0161C106.716 79.6783 106.27 81.0796 106.193 81.3378C106.049 81.8588 106.109 81.9269 106.139 81.9278C106.183 81.9328 106.191 81.8817 106.374 81.3961C106.471 81.1555 106.929 79.7839 107.288 79.1361C107.556 78.6522 108.285 77.6336 108.957 76.9532C109.142 76.7616 109.344 76.5712 109.558 76.3841C109.561 76.3858 109.562 76.3872 109.566 76.3889C109.657 76.4374 109.845 76.4903 110.162 76.679C110.482 76.8622 110.832 77.1933 111.076 77.4946C111.32 77.7964 111.477 78.0527 111.515 78.0346C111.543 78.0215 111.448 77.7328 111.233 77.3887C111.019 77.0462 110.662 76.6618 110.305 76.4569C110.058 76.3096 109.873 76.2501 109.744 76.2254C109.857 76.1311 109.972 76.0378 110.092 75.9467C110.517 75.6315 110.994 75.3543 111.49 75.106C111.498 75.1022 111.506 75.0994 111.514 75.0956C111.524 75.1015 111.532 75.1075 111.546 75.1139C111.639 75.1629 111.826 75.2241 112.162 75.3859C112.499 75.5473 112.9 75.8148 113.195 76.0695C113.492 76.3208 113.696 76.5414 113.729 76.5174C113.756 76.4988 113.605 76.2351 113.329 75.9379C113.058 75.6382 112.647 75.3264 112.285 75.1527C112.075 75.0518 111.92 74.9997 111.799 74.9699C112.404 74.6993 113.024 74.4692 113.627 74.2571C113.629 74.2576 113.629 74.2583 113.631 74.2585C113.69 74.2759 113.802 74.2811 114.021 74.3454C114.24 74.4111 114.515 74.5444 114.733 74.6693C114.951 74.7926 115.117 74.8959 115.144 74.8664C115.166 74.8416 115.044 74.6876 114.844 74.5189C114.647 74.3492 114.361 74.174 114.102 74.0957C114.098 74.0943 114.094 74.0941 114.09 74.0929C114.237 74.041 114.387 73.9886 114.53 73.9375C114.692 73.8801 114.848 73.8213 115.002 73.7621C115.02 73.7678 115.043 73.7685 115.078 73.7573C115.109 73.7468 115.151 73.7223 115.197 73.6859C115.413 73.5997 115.617 73.5122 115.81 73.4248C115.818 73.4291 115.828 73.4327 115.84 73.4355C115.888 73.4474 115.975 73.4486 116.148 73.4812C116.321 73.5155 116.543 73.5876 116.72 73.6595C116.897 73.7304 117.034 73.7897 117.05 73.7654C117.064 73.7442 116.954 73.6426 116.787 73.5364C116.62 73.4298 116.387 73.3279 116.189 73.2887C116.164 73.2837 116.143 73.2823 116.121 73.2794C116.396 73.1452 116.641 73.0131 116.846 72.8876C116.979 72.8036 117.101 72.7272 117.208 72.6596C117.306 72.5859 117.392 72.5218 117.464 72.4671C117.603 72.361 117.676 72.2998 117.67 72.2926C117.664 72.2853 117.58 72.3324 117.432 72.4243Z" fill="#313A4C"/>
<path d="M99.5068 82.2885L100.802 90.825C100.906 91.5095 101.513 92.0167 102.228 92.0167H109.148C109.862 92.0167 110.469 91.5095 110.573 90.825L111.869 82.2885H99.5068Z" fill="#313A4C"/>
<path d="M112.325 79.9084H99.0491C98.8006 79.9084 98.6075 80.1169 98.6343 80.3556L98.9881 83.5051C99.0112 83.7098 99.1898 83.8652 99.4031 83.8652H111.972C112.185 83.8652 112.364 83.71 112.387 83.5051L112.741 80.3556C112.767 80.1169 112.574 79.9084 112.325 79.9084Z" fill="#39475B"/>
<path d="M22.1067 88.6024C21.8728 87.1742 20.4868 86.1998 19.0108 86.4261C16.6802 86.7831 14.3166 86.7831 11.9863 86.4261C10.51 86.1991 9.12408 87.1744 8.89013 88.6024C8.65643 90.0304 9.66356 91.3715 11.1396 91.5976C12.5858 91.8194 14.0421 91.9299 15.4984 91.9299C16.9547 91.9299 18.4111 91.8192 19.8573 91.5976C21.3333 91.3715 22.3404 90.0304 22.1067 88.6024Z" fill="#212A38"/>
<path d="M15.703 78.2623H15.2929C13.7985 78.2623 12.5869 77.3476 12.5869 76.2195C12.5869 75.0914 13.7985 74.1768 15.2929 74.1768H15.703C17.1974 74.1768 18.409 75.0914 18.409 76.2195C18.409 77.3476 17.1977 78.2623 15.703 78.2623Z" fill="#39475B"/>
<path d="M22.2718 83.6525C22.0487 82.2895 20.7267 81.3608 19.3164 81.575C16.7831 81.9639 14.2134 81.9639 11.6798 81.575C10.2715 81.3603 8.94774 82.2895 8.72461 83.6525C8.50125 85.0158 9.46261 86.2957 10.8715 86.5121C12.4065 86.7472 13.9524 86.8648 15.4982 86.8648C17.0441 86.8648 18.59 86.7472 20.1247 86.5121C21.5338 86.296 22.4952 85.0158 22.2718 83.6525Z" fill="#313A4C"/>
<path d="M20.0812 79.6389C19.8795 78.531 18.6815 77.7741 17.4075 77.9507C16.2085 78.1154 14.9927 78.1154 13.7937 77.9507C12.519 77.7753 11.3219 78.531 11.12 79.6389C10.918 80.7468 11.7876 81.7868 13.0624 81.9625C13.9047 82.0781 14.7526 82.1362 15.6006 82.1362C16.4486 82.1362 17.2965 82.0781 18.1388 81.9625C19.4136 81.7871 20.2832 80.7468 20.0812 79.6389Z" fill="#354156"/>
</g>
<defs>
<clipPath id="clip0_23_444">
<rect width="123" height="119" fill="white"/>
</clipPath>
</defs>
</svg>
