<svg width="36" height="31" viewBox="0 0 36 31" fill="none" xmlns="http://www.w3.org/2000/svg">
<path d="M3.34687 18.1581L16.0523 30.0199C16.5797 30.512 17.2758 30.7863 18 30.7863C18.7242 30.7863 19.4203 30.512 19.9477 30.0199L32.6531 18.1581C34.7906 16.1683 36 13.3769 36 10.4589V10.0511C36 5.13627 32.4492 0.94564 27.6047 0.137046C24.3984 -0.397329 21.1359 0.650328 18.8438 2.94252L18 3.78627L17.1562 2.94252C14.8641 0.650328 11.6016 -0.397329 8.39531 0.137046C3.55078 0.94564 0 5.13627 0 10.0511V10.4589C0 13.3769 1.20937 16.1683 3.34687 18.1581Z" fill="#86EFAC"/>
</svg>
